# xmcd
#
# Track frame offsets: 
#        150
#        23346
#        44953
#        78407
#        107744
#        126656
#        149190
#        181751
#        202015
#        228166
#
# Disc length: 3378 seconds
#
# Revision: 0
# Processed by: cddbd v1.5.2PL0 Copyright (c) Steve Scherf et al.
# Submitted via: ExactAudioCopyFreeDBPlugin 1.0
#
DISCID=900d300a
DTITLE=片倉真由子 - inspiration
DYEAR=1900
DGENRE=
TTITLE0=Blues For Tyner
TTITLE1=Rising (Song For My Father)
TTITLE2=Secret Love
TTITLE3=No Blues
TTITLE4=Roseroom
TTITLE5=Portrait Of Freddie
TTITLE6=Ruby, My Dear
TTITLE7=Bad Cats
TTITLE8=A Foggy Day
TTITLE9=8th Street
EXTD=
EXTT0=
EXTT1=
EXTT2=
EXTT3=
EXTT4=
EXTT5=
EXTT6=
EXTT7=
EXTT8=
EXTT9=
PLAYORDER=
